<?xml version="1.0" standalone="no"?>
<!DOCTYPE svg PUBLIC "-//W3C//DTD SVG 20010904//EN"
 "http://www.w3.org/TR/2001/REC-SVG-20010904/DTD/svg10.dtd">
<svg version="1.0" xmlns="http://www.w3.org/2000/svg"
 width="2400.000000pt" height="540.000000pt" viewBox="0 0 2400.000000 540.000000"
 preserveAspectRatio="xMidYMid meet">
<g transform="translate(0.000000,540.000000) scale(0.100000,-0.100000)"
fill="#ffffff" stroke="none">
<path d="M505 3912 c-55 -7 -107 -20 -116 -28 -8 -8 -25 -14 -37 -14 -51 0
-182 -148 -216 -245 -34 -97 -37 -168 -34 -908 3 -675 4 -734 21 -764 9 -18
17 -42 17 -54 0 -52 139 -214 203 -235 18 -6 50 -19 72 -28 69 -32 356 -26
428 9 30 14 58 25 64 25 10 0 34 18 83 63 45 41 108 143 115 188 4 24 14 57
22 73 21 40 32 478 13 501 -7 9 -20 13 -29 10 -9 -4 -83 -6 -164 -6 -179 0
-167 15 -156 -194 9 -177 4 -248 -24 -294 -60 -100 -216 -98 -285 4 l-22 31 0
716 0 715 30 41 c46 64 69 75 149 70 76 -4 107 -23 138 -82 15 -29 21 -293 8
-348 -11 -46 1 -49 178 -52 91 -2 171 0 178 5 19 11 5 388 -16 428 -8 17 -15
40 -15 53 0 13 -7 34 -15 48 -8 14 -19 35 -24 48 -30 66 -119 156 -171 173
-19 6 -46 18 -60 27 -42 27 -219 39 -335 24z"/>
<path d="M2193 3897 c-8 -14 -5 -2259 4 -2266 21 -16 351 -1 355 17 2 9 1 222
-2 472 -5 311 -3 459 4 469 8 10 34 12 111 8 114 -5 132 -12 172 -64 l28 -36
5 -396 c5 -362 7 -399 25 -433 l18 -37 146 -2 c80 0 159 -1 175 -2 47 -3 53
19 28 120 -20 80 -22 116 -22 363 0 297 -11 449 -35 483 -8 12 -15 28 -15 37
-1 22 -69 95 -107 114 -58 29 -63 86 -8 86 22 0 98 87 122 140 53 117 55 547
3 665 -33 74 -125 184 -155 185 -6 0 -28 9 -49 21 -37 20 -65 27 -201 49 -73
12 -595 18 -602 7z m602 -353 c11 -3 33 -26 48 -50 l29 -44 -1 -202 c-1 -222
-3 -233 -74 -288 -33 -26 -220 -51 -239 -32 -18 18 -15 611 3 623 14 10 197 4
234 -7z"/>
<path d="M4328 3890 c-16 -14 -17 -29 -7 -245 11 -228 6 -1870 -6 -1945 -10
-66 -36 -62 496 -63 440 0 483 1 488 16 9 24 6 316 -3 324 -9 9 -361 4 -486
-7 -148 -13 -135 -43 -135 339 1 219 4 324 12 332 8 8 66 7 214 -2 240 -15
245 -15 264 1 23 19 22 335 0 344 -9 3 -120 3 -248 -1 -274 -7 -257 -15 -246
107 10 111 10 277 0 364 -10 97 1 108 107 101 218 -14 509 -16 518 -3 10 14
12 333 2 343 -15 15 -952 10 -970 -5z"/>
<path d="M6593 3892 c-8 -8 -13 -37 -13 -74 0 -33 -6 -86 -14 -117 -8 -31 -17
-94 -21 -141 -4 -47 -11 -92 -16 -101 -4 -9 -13 -58 -19 -110 -6 -52 -17 -119
-25 -149 -7 -30 -16 -88 -20 -128 -3 -40 -12 -94 -20 -120 -7 -26 -16 -81 -20
-122 -3 -41 -12 -97 -20 -125 -7 -27 -16 -81 -20 -120 -3 -38 -13 -95 -20
-125 -7 -30 -17 -91 -20 -135 -4 -44 -13 -98 -20 -120 -7 -22 -16 -73 -20
-113 -3 -40 -12 -90 -19 -110 -7 -20 -16 -71 -20 -112 -4 -41 -17 -101 -28
-133 -36 -105 -32 -107 171 -107 194 0 181 -8 181 105 0 33 5 76 10 95 6 19
14 82 19 138 4 57 13 107 19 110 15 10 372 6 381 -4 11 -13 33 -181 40 -312 5
-84 10 -115 21 -122 12 -8 134 -12 328 -12 34 0 55 22 48 51 -3 14 -10 51 -16
81 -6 30 -19 93 -30 140 -10 47 -22 117 -26 155 -3 39 -12 88 -19 110 -7 22
-16 75 -20 118 -4 43 -11 93 -16 110 -6 18 -16 84 -24 147 -8 63 -18 133 -24
155 -14 56 -40 220 -56 345 -7 58 -17 116 -22 130 -6 14 -13 61 -17 105 -4 44
-13 103 -21 130 -7 28 -16 84 -20 125 -4 41 -14 95 -21 120 -8 25 -14 77 -15
115 -1 39 -4 84 -8 100 l-6 30 -244 5 c-195 4 -247 2 -258 -8z m267 -498 c6
-14 10 -64 10 -112 0 -48 7 -119 15 -158 8 -38 19 -126 24 -195 6 -68 15 -140
20 -159 6 -19 15 -84 21 -144 5 -60 14 -114 20 -121 5 -7 13 -32 16 -58 9 -60
-1 -64 -159 -65 -126 -1 -128 0 -144 25 -15 23 -15 28 0 76 9 29 19 90 23 137
4 47 11 96 16 110 5 14 14 81 19 150 5 69 14 142 20 164 6 21 14 104 18 185 4
80 13 156 20 169 16 30 49 28 61 -4z"/>
<path d="M8220 3893 c-22 -16 -26 -325 -4 -343 8 -7 66 -8 180 -1 127 7 172 6
179 -2 7 -8 8 -326 5 -947 -4 -648 -2 -941 5 -954 10 -17 24 -19 180 -17 93 1
173 5 178 8 6 4 8 365 5 959 -4 694 -2 954 6 957 6 2 85 0 175 -5 107 -6 167
-5 175 1 14 12 19 319 6 340 -10 18 -1065 21 -1090 4z"/>
<path d="M10327 3902 c-9 -2 -17 -11 -17 -20 -3 -253 1 -2237 5 -2240 7 -8
960 -6 972 1 7 5 10 60 9 163 -1 145 -2 157 -21 169 -20 13 -436 5 -523 -10
-76 -12 -74 -20 -75 340 0 378 -7 356 114 343 180 -19 334 -25 354 -13 18 11
19 24 20 179 0 200 29 180 -242 169 -111 -4 -212 -6 -224 -3 l-23 6 0 278 c-1
270 0 279 19 286 11 3 144 3 295 -1 151 -5 282 -6 291 -3 20 6 22 325 3 344
-10 10 -909 21 -957 12z"/>
<path d="M12329 3898 c-10 -4 -19 -13 -19 -20 -4 -621 2 -2234 7 -2239 10 -9
663 7 728 19 47 8 120 41 155 69 66 53 84 71 115 118 19 28 35 60 35 69 0 9 8
31 18 49 27 50 26 1530 -1 1597 -59 144 -111 214 -184 251 -26 13 -59 32 -72
42 -13 9 -39 17 -57 17 -18 0 -61 6 -96 14 -68 16 -592 27 -629 14z m630 -366
c14 -10 36 -34 49 -52 l22 -33 0 -680 0 -680 -31 -49 c-32 -49 -38 -52 -123
-63 -108 -14 -162 -15 -180 -2 -23 17 -27 1563 -4 1578 26 17 239 2 267 -19z"/>
<path d="M14465 3900 c-13 -21 -2 -2261 11 -2268 8 -5 43 -5 77 -1 34 4 177 8
317 8 157 0 266 4 283 10 16 6 40 11 53 11 96 0 303 164 304 240 0 9 8 27 18
40 20 29 34 482 19 595 -16 115 -80 208 -190 276 -52 32 -53 42 -4 63 41 18
103 77 112 108 4 12 14 30 21 39 50 57 51 561 1 617 -8 10 -18 28 -22 41 -9
29 -131 151 -151 151 -8 0 -31 9 -51 20 -21 11 -50 20 -65 20 -15 0 -55 6 -90
14 -61 14 -635 28 -643 16z m631 -365 c50 -32 58 -59 62 -202 6 -206 -2 -257
-48 -307 l-38 -41 -107 -5 c-158 -7 -143 -38 -142 287 0 153 2 282 5 287 9 15
241 -1 268 -19z m-21 -902 c108 -32 133 -122 121 -428 -6 -149 -12 -166 -67
-207 -29 -22 -276 -45 -293 -28 -16 16 -15 659 1 675 16 17 168 9 238 -12z"/>
<path d="M16461 3902 c-16 -5 -13 -60 5 -107 9 -22 24 -64 35 -94 10 -30 23
-59 28 -65 4 -6 12 -29 16 -51 4 -22 11 -45 16 -51 5 -7 16 -38 25 -70 8 -32
18 -63 23 -68 5 -6 12 -29 16 -51 3 -21 13 -51 20 -65 7 -14 17 -44 21 -65 4
-22 13 -49 20 -60 7 -11 16 -38 20 -60 3 -22 11 -45 16 -52 5 -7 16 -34 23
-60 23 -80 46 -147 60 -173 7 -14 15 -42 19 -62 4 -20 16 -58 28 -84 20 -46
20 -59 17 -535 -3 -318 -1 -491 6 -496 22 -17 354 -4 364 15 5 10 5 89 0 187
-14 289 -11 749 5 787 22 53 47 130 58 178 6 25 16 54 23 65 7 11 16 36 20 55
3 19 12 49 20 65 16 35 42 112 58 175 7 25 17 54 23 65 7 11 15 36 19 55 4 19
13 44 20 56 8 12 17 39 20 60 4 21 13 48 20 59 6 11 15 38 19 60 4 22 14 51
21 65 13 25 36 89 59 165 6 22 19 52 29 67 11 16 17 40 15 60 l-3 33 -173 -2
c-95 -1 -176 -4 -181 -7 -12 -7 -38 -91 -47 -147 -4 -24 -12 -55 -19 -69 -7
-14 -15 -43 -19 -65 -4 -22 -13 -56 -20 -75 -8 -19 -18 -57 -24 -85 -13 -60
-28 -123 -48 -190 -9 -27 -19 -76 -23 -108 -10 -78 -21 -86 -55 -42 -20 25
-30 55 -37 102 -5 37 -14 72 -19 78 -5 6 -12 31 -15 55 -4 25 -15 71 -26 103
-10 31 -19 66 -19 78 0 11 -5 30 -12 42 -6 12 -17 47 -24 77 -7 30 -18 73 -23
95 -6 22 -13 57 -16 77 -11 75 -18 78 -216 81 -98 1 -182 1 -188 -1z"/>
<path d="M18664 3898 c-12 -19 -4 -2252 8 -2263 23 -19 336 -7 346 13 5 9 6
222 2 472 -4 309 -3 459 4 469 8 10 34 12 112 9 117 -5 139 -15 182 -81 l27
-42 0 -397 0 -398 25 -24 c24 -24 29 -25 190 -26 91 -1 171 -1 178 -1 18 1 15
71 -5 106 -15 26 -18 78 -23 410 -6 364 -7 382 -28 427 -12 26 -22 49 -22 52
0 28 -78 108 -118 120 -47 15 -46 86 1 86 36 0 108 95 139 183 25 70 38 426
19 503 -27 103 -41 143 -63 175 -113 168 -243 206 -706 211 -145 2 -266 0
-268 -4z m633 -393 c40 -47 41 -50 48 -141 22 -289 -19 -412 -143 -429 -26 -4
-72 -10 -102 -15 -89 -13 -85 -28 -84 318 0 164 4 305 9 312 6 10 34 11 119 7
l111 -5 42 -47z"/>
<path d="M21071 3900 c-20 -13 -30 -55 -41 -175 -6 -71 -17 -148 -25 -170 -8
-22 -17 -80 -21 -130 -4 -49 -12 -106 -19 -125 -7 -20 -16 -74 -20 -120 -4
-46 -13 -100 -20 -120 -7 -20 -16 -74 -20 -120 -4 -47 -13 -103 -20 -125 -7
-22 -16 -74 -20 -115 -3 -41 -13 -98 -20 -126 -7 -28 -16 -86 -20 -130 -3 -43
-13 -99 -20 -124 -7 -25 -17 -81 -20 -124 -4 -44 -13 -100 -21 -125 -7 -24
-16 -76 -20 -115 -3 -39 -15 -96 -25 -127 -39 -121 -27 -218 26 -204 11 2 77
5 147 5 167 0 163 -5 172 173 6 129 21 237 36 267 11 21 365 20 385 -1 9 -9
18 -62 25 -144 14 -167 25 -256 34 -277 7 -16 312 -33 355 -19 18 6 10 155
-11 197 -9 16 -19 67 -22 112 -4 46 -13 100 -21 121 -7 20 -16 75 -20 121 -4
46 -13 101 -20 121 -7 19 -16 76 -20 125 -4 49 -12 100 -17 114 -5 14 -16 77
-24 140 -8 63 -18 128 -23 145 -6 16 -13 66 -17 110 -4 43 -12 93 -19 110 -7
16 -16 68 -20 115 -4 47 -13 108 -20 135 -8 28 -19 92 -24 143 -6 51 -14 98
-18 105 -4 6 -13 64 -20 127 -12 116 -28 219 -37 227 -6 6 -466 9 -475 3z
m227 -473 c6 -7 14 -37 17 -67 4 -30 13 -77 21 -104 8 -27 14 -87 14 -133 0
-46 7 -116 15 -156 8 -40 19 -124 24 -187 5 -64 15 -128 21 -144 17 -45 32
-214 20 -236 -9 -17 -23 -18 -147 -17 l-138 2 -3 45 c-2 25 6 85 17 135 11 49
23 126 26 170 4 44 13 109 21 145 7 36 14 97 14 135 1 39 5 93 11 120 5 28 14
99 19 160 13 145 21 165 48 132z"/>
<path d="M22666 3903 c-13 -14 -5 -72 14 -96 11 -14 20 -33 20 -44 0 -10 7
-31 16 -48 9 -16 22 -50 29 -75 24 -82 46 -145 61 -172 8 -14 14 -37 14 -50 0
-13 9 -42 20 -63 11 -22 23 -58 27 -80 3 -22 10 -45 15 -52 5 -7 16 -36 23
-65 16 -64 40 -137 66 -200 10 -26 19 -54 19 -63 0 -9 9 -33 20 -55 11 -22 20
-50 20 -63 0 -12 5 -28 10 -33 49 -49 68 -493 40 -928 -8 -117 -7 -162 1 -172
15 -18 364 -21 374 -3 4 6 6 231 6 500 -2 465 -1 491 17 533 11 24 23 59 27
77 4 19 13 43 19 54 7 11 16 38 20 59 4 21 14 48 21 60 7 12 17 39 20 61 4 22
13 49 20 61 8 12 17 39 21 60 4 21 13 48 20 59 7 11 16 38 20 60 4 22 13 49
20 60 7 11 16 38 20 60 4 22 13 49 20 60 7 11 16 38 20 60 3 22 11 45 16 52 5
7 16 34 23 60 18 60 52 159 69 198 21 47 29 105 16 120 -13 15 -337 10 -354
-6 -5 -5 -13 -30 -17 -56 -11 -64 -38 -170 -55 -213 -7 -19 -16 -57 -20 -85
-4 -27 -13 -59 -20 -70 -8 -11 -14 -32 -14 -47 0 -16 -9 -54 -20 -85 -11 -32
-20 -69 -20 -83 0 -38 -51 -170 -66 -170 -14 0 -19 12 -33 80 -14 63 -30 124
-52 200 -11 36 -19 75 -19 88 0 13 -6 35 -14 50 -8 15 -17 50 -21 77 -4 28
-13 61 -20 75 -7 14 -16 47 -20 74 -4 27 -14 61 -21 75 -8 14 -14 38 -14 52 0
15 -6 31 -12 36 -14 11 -382 25 -392 16z"/>
</g>
</svg>
